<svg width="1440" height="809" viewBox="0 0 1440 809" fill="none" xmlns="http://www.w3.org/2000/svg">
<rect width="1440" height="809" fill="#FF5732"/>
<rect x="15" y="15" width="1410" height="779" fill="black"/>
<ellipse cx="719.649" cy="413.722" rx="220.177" ry="227.058" transform="rotate(-90 719.649 413.722)" fill="url(#paint0_radial)"/>
<g filter="url(#filter0_f)">
<ellipse cx="719.5" cy="413.746" rx="235.254" ry="242.804" transform="rotate(-90 719.5 413.746)" fill="url(#paint1_radial)"/>
</g>
<ellipse cx="719.351" cy="413.77" rx="220.177" ry="227.058" transform="rotate(90 719.351 413.77)" fill="url(#paint2_radial)"/>
<g filter="url(#filter1_f)">
<g filter="url(#filter2_f)">
<ellipse cx="719.649" cy="413.457" rx="230.196" ry="237.39" transform="rotate(90 719.649 413.457)" fill="url(#paint3_radial)"/>
</g>
</g>
<g clip-path="url(#clip0)">
<path d="M66 119.297V68H100.693V74.3243H72.4909V93.0631H95.5449V93.5315H72.4909V112.739H100.693V119.297H66Z" fill="#FF5732"/>
<path d="M102.931 119.297L120.39 92.8288L104.05 68H111.66L124.642 87.6757L137.624 68H144.786L128.447 92.5946L145.906 119.297H138.072L124.195 97.982L110.317 119.297H102.931Z" fill="#FF5732"/>
<path d="M148.592 119.297V68H155.082V119.297H148.592Z" fill="#FF5732"/>
<path d="M160.007 74.3243V68H197.833V74.3243H182.165V119.297H175.674V74.3243H160.007Z" fill="#FF5732"/>
<path d="M213.948 74.3243V68H251.775V74.3243H236.107V119.297H229.392V74.3243H213.948Z" fill="#FF5732"/>
<path d="M256.475 119.297V68H262.966V93.0631H288.706V68H295.197V119.297H288.706V93.5315H262.966V119.063H256.475V119.297Z" fill="#FF5732"/>
<path d="M302.359 119.297V68H337.052V74.3243H308.85V93.0631H331.904V93.5315H308.85V112.739H337.052V119.297H302.359Z" fill="#FF5732"/>
<path d="M356.301 119.297V68H378.684C390.099 68 395.247 73.1532 395.247 80.6486C395.247 89.0811 388.084 93.0631 376.893 93.2973C382.936 93.2973 387.861 94.2342 391.218 95.8739C394.799 97.5135 396.366 100.793 396.366 105.243C396.366 114.144 389.651 119.063 378.012 119.063H356.301V119.297ZM362.792 74.3243V93.0631H376.669C384.951 93.0631 388.756 89.0811 388.756 82.991C388.756 77.8378 385.622 74.3243 377.117 74.3243H362.792ZM362.792 93.5315V112.739H376.669C381.594 112.739 385.175 111.802 387.189 109.928C389.204 108.054 390.099 105.712 390.099 102.667C390.099 96.5766 386.294 93.2973 377.117 93.2973H362.792V93.5315Z" fill="#FF5732"/>
<path d="M433.073 68H439.564V98.2162C439.564 105.477 437.774 110.865 434.192 114.613C430.611 118.126 425.687 120 419.868 120C407.781 120 400.843 113.441 400.843 98.2162V68H407.333V97.982C407.333 108.288 411.586 113.441 420.091 113.441C428.597 113.441 433.297 108.288 433.297 97.982V68H433.073Z" fill="#FF5732"/>
<path d="M446.055 119.297V68H468.438C479.853 68 485.001 73.1532 485.001 80.6486C485.001 89.0811 477.838 93.0631 466.647 93.2973C472.69 93.2973 477.615 94.2342 480.972 95.8739C484.553 97.5135 486.12 100.793 486.12 105.243C486.12 114.144 479.405 119.063 467.766 119.063H446.055V119.297ZM452.546 74.3243V93.0631H466.423C474.705 93.0631 478.51 89.0811 478.51 82.991C478.51 77.8378 475.376 74.3243 466.871 74.3243H452.546ZM452.546 93.5315V112.739H466.423C471.347 112.739 474.929 111.802 476.943 109.928C478.957 108.054 479.853 105.712 479.853 102.667C479.853 96.5766 476.048 93.2973 466.871 93.2973H452.546V93.5315Z" fill="#FF5732"/>
<path d="M491.492 119.297V68H513.874C525.289 68 530.437 73.1532 530.437 80.6486C530.437 89.0811 523.275 93.0631 512.084 93.2973C518.127 93.2973 523.051 94.2342 526.408 95.8739C529.99 97.5135 531.556 100.793 531.556 105.243C531.556 114.144 524.842 119.063 513.203 119.063H491.492V119.297ZM497.983 74.3243V93.0631H511.86C520.141 93.0631 523.946 89.0811 523.946 82.991C523.946 77.8378 520.813 74.3243 512.307 74.3243H497.983ZM497.983 93.5315V112.739H511.86C516.784 112.739 520.365 111.802 522.38 109.928C524.394 108.054 525.289 105.712 525.289 102.667C525.289 96.5766 521.484 93.2973 512.307 93.2973H497.983V93.5315Z" fill="#FF5732"/>
<path d="M536.928 119.297V68H543.419V112.739H569.607V119.297H536.928Z" fill="#FF5732"/>
<path d="M574.307 119.297V68H609V74.3243H580.798V93.0631H603.852V93.5315H580.798V112.739H609V119.297H574.307Z" fill="#FF5732"/>
</g>
<path d="M565.54 415.18C563.46 415.18 561.58 414.72 559.9 413.8C558.24 412.88 556.93 411.61 555.97 409.99C555.03 408.35 554.56 406.52 554.56 404.5C554.56 402.48 555.03 400.66 555.97 399.04C556.93 397.4 558.25 396.12 559.93 395.2C561.61 394.28 563.49 393.82 565.57 393.82C567.13 393.82 568.57 394.08 569.89 394.6C571.21 395.12 572.33 395.88 573.25 396.88L571.84 398.29C570.2 396.63 568.13 395.8 565.63 395.8C563.97 395.8 562.46 396.18 561.1 396.94C559.74 397.7 558.67 398.74 557.89 400.06C557.13 401.38 556.75 402.86 556.75 404.5C556.75 406.14 557.13 407.62 557.89 408.94C558.67 410.26 559.74 411.3 561.1 412.06C562.46 412.82 563.97 413.2 565.63 413.2C568.15 413.2 570.22 412.36 571.84 410.68L573.25 412.09C572.33 413.09 571.2 413.86 569.86 414.4C568.54 414.92 567.1 415.18 565.54 415.18ZM583.279 415.15C581.759 415.15 580.389 414.81 579.169 414.13C577.949 413.43 576.989 412.47 576.289 411.25C575.589 410.03 575.239 408.65 575.239 407.11C575.239 405.57 575.589 404.19 576.289 402.97C576.989 401.75 577.949 400.8 579.169 400.12C580.389 399.44 581.759 399.1 583.279 399.1C584.799 399.1 586.169 399.44 587.389 400.12C588.609 400.8 589.559 401.75 590.239 402.97C590.939 404.19 591.289 405.57 591.289 407.11C591.289 408.65 590.939 410.03 590.239 411.25C589.559 412.47 588.609 413.43 587.389 414.13C586.169 414.81 584.799 415.15 583.279 415.15ZM583.279 413.26C584.399 413.26 585.399 413.01 586.279 412.51C587.179 411.99 587.879 411.26 588.379 410.32C588.879 409.38 589.129 408.31 589.129 407.11C589.129 405.91 588.879 404.84 588.379 403.9C587.879 402.96 587.179 402.24 586.279 401.74C585.399 401.22 584.399 400.96 583.279 400.96C582.159 400.96 581.149 401.22 580.249 401.74C579.369 402.24 578.669 402.96 578.149 403.9C577.649 404.84 577.399 405.91 577.399 407.11C577.399 408.31 577.649 409.38 578.149 410.32C578.669 411.26 579.369 411.99 580.249 412.51C581.149 413.01 582.159 413.26 583.279 413.26ZM615.318 399.1C617.298 399.1 618.848 399.67 619.968 400.81C621.108 401.95 621.678 403.63 621.678 405.85V415H619.548V406.06C619.548 404.42 619.148 403.17 618.348 402.31C617.568 401.45 616.458 401.02 615.018 401.02C613.378 401.02 612.088 401.53 611.148 402.55C610.208 403.55 609.738 404.94 609.738 406.72V415H607.608V406.06C607.608 404.42 607.208 403.17 606.408 402.31C605.628 401.45 604.508 401.02 603.048 401.02C601.428 401.02 600.138 401.53 599.178 402.55C598.238 403.55 597.768 404.94 597.768 406.72V415H595.638V399.22H597.678V402.1C598.238 401.14 599.018 400.4 600.018 399.88C601.018 399.36 602.168 399.1 603.468 399.1C604.788 399.1 605.928 399.38 606.888 399.94C607.868 400.5 608.598 401.33 609.078 402.43C609.658 401.39 610.488 400.58 611.568 400C612.668 399.4 613.918 399.1 615.318 399.1ZM627.454 399.22H629.584V415H627.454V399.22ZM628.534 395.77C628.094 395.77 627.724 395.62 627.424 395.32C627.124 395.02 626.974 394.66 626.974 394.24C626.974 393.84 627.124 393.49 627.424 393.19C627.724 392.89 628.094 392.74 628.534 392.74C628.974 392.74 629.344 392.89 629.644 393.19C629.944 393.47 630.094 393.81 630.094 394.21C630.094 394.65 629.944 395.02 629.644 395.32C629.344 395.62 628.974 395.77 628.534 395.77ZM643.551 399.1C645.531 399.1 647.101 399.68 648.261 400.84C649.441 401.98 650.031 403.65 650.031 405.85V415H647.901V406.06C647.901 404.42 647.491 403.17 646.671 402.31C645.851 401.45 644.681 401.02 643.161 401.02C641.461 401.02 640.111 401.53 639.111 402.55C638.131 403.55 637.641 404.94 637.641 406.72V415H635.511V399.22H637.551V402.13C638.131 401.17 638.931 400.43 639.951 399.91C640.991 399.37 642.191 399.1 643.551 399.1ZM670.482 399.22V413.08C670.482 415.76 669.822 417.74 668.502 419.02C667.202 420.32 665.232 420.97 662.592 420.97C661.132 420.97 659.742 420.75 658.422 420.31C657.122 419.89 656.062 419.3 655.242 418.54L656.322 416.92C657.082 417.6 658.002 418.13 659.082 418.51C660.182 418.89 661.332 419.08 662.532 419.08C664.532 419.08 666.002 418.61 666.942 417.67C667.882 416.75 668.352 415.31 668.352 413.35V411.34C667.692 412.34 666.822 413.1 665.742 413.62C664.682 414.14 663.502 414.4 662.202 414.4C660.722 414.4 659.372 414.08 658.152 413.44C656.952 412.78 656.002 411.87 655.302 410.71C654.622 409.53 654.282 408.2 654.282 406.72C654.282 405.24 654.622 403.92 655.302 402.76C656.002 401.6 656.952 400.7 658.152 400.06C659.352 399.42 660.702 399.1 662.202 399.1C663.542 399.1 664.752 399.37 665.832 399.91C666.912 400.45 667.782 401.23 668.442 402.25V399.22H670.482ZM662.412 412.51C663.552 412.51 664.582 412.27 665.502 411.79C666.422 411.29 667.132 410.6 667.632 409.72C668.152 408.84 668.412 407.84 668.412 406.72C668.412 405.6 668.152 404.61 667.632 403.75C667.132 402.87 666.422 402.19 665.502 401.71C664.602 401.21 663.572 400.96 662.412 400.96C661.272 400.96 660.242 401.2 659.322 401.68C658.422 402.16 657.712 402.84 657.192 403.72C656.692 404.6 656.442 405.6 656.442 406.72C656.442 407.84 656.692 408.84 657.192 409.72C657.712 410.6 658.422 411.29 659.322 411.79C660.242 412.27 661.272 412.51 662.412 412.51ZM684.29 399.22H686.42V415H684.29V399.22ZM685.37 395.77C684.93 395.77 684.56 395.62 684.26 395.32C683.96 395.02 683.81 394.66 683.81 394.24C683.81 393.84 683.96 393.49 684.26 393.19C684.56 392.89 684.93 392.74 685.37 392.74C685.81 392.74 686.18 392.89 686.48 393.19C686.78 393.47 686.93 393.81 686.93 394.21C686.93 394.65 686.78 395.02 686.48 395.32C686.18 395.62 685.81 395.77 685.37 395.77ZM700.387 399.1C702.367 399.1 703.937 399.68 705.097 400.84C706.277 401.98 706.867 403.65 706.867 405.85V415H704.737V406.06C704.737 404.42 704.327 403.17 703.507 402.31C702.687 401.45 701.517 401.02 699.997 401.02C698.297 401.02 696.947 401.53 695.947 402.55C694.967 403.55 694.477 404.94 694.477 406.72V415H692.347V399.22H694.387V402.13C694.967 401.17 695.767 400.43 696.787 399.91C697.827 399.37 699.027 399.1 700.387 399.1ZM726.021 399.1C728.081 399.1 729.661 399.62 730.761 400.66C731.861 401.68 732.411 403.2 732.411 405.22V415H730.371V412.54C729.891 413.36 729.181 414 728.241 414.46C727.321 414.92 726.221 415.15 724.941 415.15C723.181 415.15 721.781 414.73 720.741 413.89C719.701 413.05 719.181 411.94 719.181 410.56C719.181 409.22 719.661 408.14 720.621 407.32C721.601 406.5 723.151 406.09 725.271 406.09H730.281V405.13C730.281 403.77 729.901 402.74 729.141 402.04C728.381 401.32 727.271 400.96 725.811 400.96C724.811 400.96 723.851 401.13 722.931 401.47C722.011 401.79 721.221 402.24 720.561 402.82L719.601 401.23C720.401 400.55 721.361 400.03 722.481 399.67C723.601 399.29 724.781 399.1 726.021 399.1ZM725.271 413.47C726.471 413.47 727.501 413.2 728.361 412.66C729.221 412.1 729.861 411.3 730.281 410.26V407.68H725.331C722.631 407.68 721.281 408.62 721.281 410.5C721.281 411.42 721.631 412.15 722.331 412.69C723.031 413.21 724.011 413.47 725.271 413.47ZM765.728 399.1C767.708 399.1 769.258 399.67 770.378 400.81C771.518 401.95 772.088 403.63 772.088 405.85V415H769.958V406.06C769.958 404.42 769.558 403.17 768.758 402.31C767.978 401.45 766.868 401.02 765.428 401.02C763.788 401.02 762.498 401.53 761.558 402.55C760.618 403.55 760.148 404.94 760.148 406.72V415H758.018V406.06C758.018 404.42 757.618 403.17 756.818 402.31C756.038 401.45 754.918 401.02 753.458 401.02C751.838 401.02 750.548 401.53 749.588 402.55C748.648 403.55 748.178 404.94 748.178 406.72V415H746.048V399.22H748.088V402.1C748.648 401.14 749.428 400.4 750.428 399.88C751.428 399.36 752.578 399.1 753.878 399.1C755.198 399.1 756.338 399.38 757.298 399.94C758.278 400.5 759.008 401.33 759.488 402.43C760.068 401.39 760.898 400.58 761.978 400C763.078 399.4 764.328 399.1 765.728 399.1ZM777.865 399.22H779.995V415H777.865V399.22ZM778.945 395.77C778.505 395.77 778.135 395.62 777.835 395.32C777.535 395.02 777.385 394.66 777.385 394.24C777.385 393.84 777.535 393.49 777.835 393.19C778.135 392.89 778.505 392.74 778.945 392.74C779.385 392.74 779.755 392.89 780.055 393.19C780.355 393.47 780.505 393.81 780.505 394.21C780.505 394.65 780.355 395.02 780.055 395.32C779.755 395.62 779.385 395.77 778.945 395.77ZM793.961 399.1C795.941 399.1 797.511 399.68 798.671 400.84C799.851 401.98 800.441 403.65 800.441 405.85V415H798.311V406.06C798.311 404.42 797.901 403.17 797.081 402.31C796.261 401.45 795.091 401.02 793.571 401.02C791.871 401.02 790.521 401.53 789.521 402.55C788.541 403.55 788.051 404.94 788.051 406.72V415H785.921V399.22H787.961V402.13C788.541 401.17 789.341 400.43 790.361 399.91C791.401 399.37 792.601 399.1 793.961 399.1ZM820.444 399.22V415H818.404V412.12C817.844 413.08 817.074 413.83 816.094 414.37C815.114 414.89 813.994 415.15 812.734 415.15C810.674 415.15 809.044 414.58 807.844 413.44C806.664 412.28 806.074 410.59 806.074 408.37V399.22H808.204V408.16C808.204 409.82 808.614 411.08 809.434 411.94C810.254 412.8 811.424 413.23 812.944 413.23C814.604 413.23 815.914 412.73 816.874 411.73C817.834 410.71 818.314 409.3 818.314 407.5V399.22H820.444ZM834.719 414.04C834.319 414.4 833.819 414.68 833.219 414.88C832.639 415.06 832.029 415.15 831.389 415.15C829.909 415.15 828.769 414.75 827.969 413.95C827.169 413.15 826.769 412.02 826.769 410.56V401.02H823.949V399.22H826.769V395.77H828.899V399.22H833.699V401.02H828.899V410.44C828.899 411.38 829.129 412.1 829.589 412.6C830.069 413.08 830.749 413.32 831.629 413.32C832.069 413.32 832.489 413.25 832.889 413.11C833.309 412.97 833.669 412.77 833.969 412.51L834.719 414.04ZM851.78 407.77H838.58C838.7 409.41 839.33 410.74 840.47 411.76C841.61 412.76 843.05 413.26 844.79 413.26C845.77 413.26 846.67 413.09 847.49 412.75C848.31 412.39 849.02 411.87 849.62 411.19L850.82 412.57C850.12 413.41 849.24 414.05 848.18 414.49C847.14 414.93 845.99 415.15 844.73 415.15C843.11 415.15 841.67 414.81 840.41 414.13C839.17 413.43 838.2 412.47 837.5 411.25C836.8 410.03 836.45 408.65 836.45 407.11C836.45 405.57 836.78 404.19 837.44 402.97C838.12 401.75 839.04 400.8 840.2 400.12C841.38 399.44 842.7 399.1 844.16 399.1C845.62 399.1 846.93 399.44 848.09 400.12C849.25 400.8 850.16 401.75 850.82 402.97C851.48 404.17 851.81 405.55 851.81 407.11L851.78 407.77ZM844.16 400.93C842.64 400.93 841.36 401.42 840.32 402.4C839.3 403.36 838.72 404.62 838.58 406.18H849.77C849.63 404.62 849.04 403.36 848 402.4C846.98 401.42 845.7 400.93 844.16 400.93Z" fill="white"/>
<defs>
<filter id="filter0_f" x="448.696" y="150.493" width="541.608" height="526.507" filterUnits="userSpaceOnUse" color-interpolation-filters="sRGB">
<feFlood flood-opacity="0" result="BackgroundImageFix"/>
<feBlend mode="normal" in="SourceGraphic" in2="BackgroundImageFix" result="shape"/>
<feGaussianBlur stdDeviation="14" result="effect1_foregroundBlur"/>
</filter>
<filter id="filter1_f" x="462.259" y="163.261" width="514.779" height="500.392" filterUnits="userSpaceOnUse" color-interpolation-filters="sRGB">
<feFlood flood-opacity="0" result="BackgroundImageFix"/>
<feBlend mode="normal" in="SourceGraphic" in2="BackgroundImageFix" result="shape"/>
<feGaussianBlur stdDeviation="10" result="effect1_foregroundBlur"/>
</filter>
<filter id="filter2_f" x="454.259" y="155.261" width="530.779" height="516.392" filterUnits="userSpaceOnUse" color-interpolation-filters="sRGB">
<feFlood flood-opacity="0" result="BackgroundImageFix"/>
<feBlend mode="normal" in="SourceGraphic" in2="BackgroundImageFix" result="shape"/>
<feGaussianBlur stdDeviation="14" result="effect1_foregroundBlur"/>
</filter>
<radialGradient id="paint0_radial" cx="0" cy="0" r="1" gradientUnits="userSpaceOnUse" gradientTransform="translate(759.809 367.874) rotate(118.35) scale(342.272 331.9)">
<stop stop-color="white" stop-opacity="0"/>
<stop offset="0.687893" stop-color="white" stop-opacity="0"/>
<stop offset="1" stop-color="white" stop-opacity="0.42"/>
</radialGradient>
<radialGradient id="paint1_radial" cx="0" cy="0" r="1" gradientUnits="userSpaceOnUse" gradientTransform="translate(762.41 364.718) rotate(118.331) scale(365.941 354.692)">
<stop stop-color="white" stop-opacity="0"/>
<stop offset="0.687893" stop-color="white" stop-opacity="0"/>
<stop offset="1" stop-color="white" stop-opacity="0.42"/>
</radialGradient>
<radialGradient id="paint2_radial" cx="0" cy="0" r="1" gradientUnits="userSpaceOnUse" gradientTransform="translate(759.511 367.922) rotate(118.35) scale(342.272 331.9)">
<stop stop-color="white" stop-opacity="0"/>
<stop offset="0.741713" stop-color="white" stop-opacity="0"/>
<stop offset="1" stop-color="white" stop-opacity="0.42"/>
</radialGradient>
<radialGradient id="paint3_radial" cx="0" cy="0" r="1" gradientUnits="userSpaceOnUse" gradientTransform="translate(761.637 365.522) rotate(118.35) scale(357.847 347.003)">
<stop stop-color="white" stop-opacity="0"/>
<stop offset="0.741713" stop-color="white" stop-opacity="0"/>
<stop offset="1" stop-color="white" stop-opacity="0.42"/>
</radialGradient>
<clipPath id="clip0">
<rect x="66" y="64" width="536" height="56" fill="white"/>
</clipPath>
</defs>
</svg>
