<svg width="375" height="677" viewBox="0 0 375 677" fill="none" xmlns="http://www.w3.org/2000/svg">
<rect width="375" height="677" fill="#FF5732"/>
<rect x="7" y="7" width="361" height="661" fill="black"/>
<ellipse cx="189.584" cy="366.733" rx="124.686" ry="128.583" transform="rotate(-90 189.584 366.733)" fill="url(#paint0_radial)"/>
<g filter="url(#filter0_f)">
<ellipse cx="189.5" cy="366.746" rx="133.224" ry="137.5" transform="rotate(-90 189.5 366.746)" fill="url(#paint1_radial)"/>
</g>
<ellipse cx="189.416" cy="366.76" rx="124.686" ry="128.583" transform="rotate(90 189.416 366.76)" fill="url(#paint2_radial)"/>
<g filter="url(#filter1_f)">
<g filter="url(#filter2_f)">
<ellipse cx="189.584" cy="366.582" rx="130.36" ry="134.434" transform="rotate(90 189.584 366.582)" fill="url(#paint3_radial)"/>
</g>
</g>
<path d="M36.7224 74.7015V37H63.4193V41.6481H41.7173V55.4204H59.4578V55.7647H41.7173V69.8812H63.4193V74.7015H36.7224Z" fill="#FF5732"/>
<path d="M65.1416 74.7015L78.5762 55.2482L66.0028 37H71.8589L81.8487 51.4609L92.0107 37H97.5223L84.949 55.0761L98.3835 74.7015H92.3552L81.6764 59.0356L70.9977 74.7015H65.1416Z" fill="#FF5732"/>
<path d="M100.278 74.7015V37H105.273V74.7015H100.278Z" fill="#FF5732"/>
<path d="M109.062 41.6481V37H138.17V41.6481H126.114V74.7015H121.119V41.6481H109.062Z" fill="#FF5732"/>
<path d="M35 96.737V92.0889H64.1082V96.737H52.0516V129.79H46.8844V96.737H35Z" fill="#FF5732"/>
<path d="M67.7251 129.79V92.0889H72.8922V110.509H92.6996V92.0889H97.6945V129.79H92.6996V110.854H72.8922V129.618H67.7251V129.79Z" fill="#FF5732"/>
<path d="M103.034 129.79V92.0889H129.731V96.737H108.029V110.509H125.769V110.854H108.029V124.97H129.731V129.79H103.034Z" fill="#FF5732"/>
<path d="M144.543 129.79V92.0889H161.767C170.551 92.0889 174.513 95.8762 174.513 101.385C174.513 107.583 169.001 110.509 160.389 110.681C165.04 110.681 168.829 111.37 171.412 112.575C174.168 113.78 175.374 116.19 175.374 119.461C175.374 126.003 170.207 129.618 161.25 129.618H144.543V129.79ZM149.538 96.737V110.509H160.217C166.59 110.509 169.518 107.583 169.518 103.107C169.518 99.3193 167.106 96.5648 160.561 96.5648H149.538V96.737ZM149.538 110.854V124.97H160.217C164.006 124.97 166.762 124.281 168.312 122.904C169.862 121.527 170.551 119.806 170.551 117.568C170.551 113.092 167.623 110.681 160.561 110.681H149.538V110.854Z" fill="#FF5732"/>
<path d="M203.621 92.0889H208.616V114.297C208.616 119.633 207.238 123.593 204.482 126.347C201.726 128.93 197.937 130.307 193.459 130.307C184.158 130.307 178.819 125.487 178.819 114.297V92.0889H183.814V114.124C183.814 121.699 187.086 125.487 193.631 125.487C200.176 125.487 203.793 121.699 203.793 114.124V92.0889H203.621Z" fill="#FF5732"/>
<path d="M213.611 129.79V92.0889H230.835C239.619 92.0889 243.58 95.8762 243.58 101.385C243.58 107.583 238.069 110.509 229.457 110.681C234.107 110.681 237.896 111.37 240.48 112.575C243.236 113.78 244.441 116.19 244.441 119.461C244.441 126.003 239.274 129.618 230.318 129.618H213.611V129.79ZM218.606 96.737V110.509H229.285C235.657 110.509 238.585 107.583 238.585 103.107C238.585 99.3193 236.174 96.5648 229.629 96.5648H218.606V96.737ZM218.606 110.854V124.97H229.285C233.074 124.97 235.83 124.281 237.38 122.904C238.93 121.527 239.619 119.806 239.619 117.568C239.619 113.092 236.691 110.681 229.629 110.681H218.606V110.854Z" fill="#FF5732"/>
<path d="M248.575 129.79V92.0889H265.799C274.583 92.0889 278.545 95.8762 278.545 101.385C278.545 107.583 273.033 110.509 264.421 110.681C269.072 110.681 272.861 111.37 275.444 112.575C278.2 113.78 279.406 116.19 279.406 119.461C279.406 126.003 274.239 129.618 265.282 129.618H248.575V129.79ZM253.57 96.737V110.509H264.249C270.622 110.509 273.55 107.583 273.55 103.107C273.55 99.3193 271.138 96.5648 264.593 96.5648H253.57V96.737ZM253.57 110.854V124.97H264.249C268.038 124.97 270.794 124.281 272.344 122.904C273.894 121.527 274.583 119.806 274.583 117.568C274.583 113.092 271.655 110.681 264.593 110.681H253.57V110.854Z" fill="#FF5732"/>
<path d="M283.54 129.79V92.0889H288.534V124.97H308.686V129.79H283.54Z" fill="#FF5732"/>
<path d="M312.303 129.79V92.0889H339V96.737H317.298V110.509H335.038V110.854H317.298V124.97H339V129.79H312.303Z" fill="#FF5732"/>
<path d="M47.54 368.18C45.46 368.18 43.58 367.72 41.9 366.8C40.24 365.88 38.93 364.61 37.97 362.99C37.03 361.35 36.56 359.52 36.56 357.5C36.56 355.48 37.03 353.66 37.97 352.04C38.93 350.4 40.25 349.12 41.93 348.2C43.61 347.28 45.49 346.82 47.57 346.82C49.13 346.82 50.57 347.08 51.89 347.6C53.21 348.12 54.33 348.88 55.25 349.88L53.84 351.29C52.2 349.63 50.13 348.8 47.63 348.8C45.97 348.8 44.46 349.18 43.1 349.94C41.74 350.7 40.67 351.74 39.89 353.06C39.13 354.38 38.75 355.86 38.75 357.5C38.75 359.14 39.13 360.62 39.89 361.94C40.67 363.26 41.74 364.3 43.1 365.06C44.46 365.82 45.97 366.2 47.63 366.2C50.15 366.2 52.22 365.36 53.84 363.68L55.25 365.09C54.33 366.09 53.2 366.86 51.86 367.4C50.54 367.92 49.1 368.18 47.54 368.18ZM65.2794 368.15C63.7594 368.15 62.3894 367.81 61.1694 367.13C59.9494 366.43 58.9894 365.47 58.2894 364.25C57.5894 363.03 57.2394 361.65 57.2394 360.11C57.2394 358.57 57.5894 357.19 58.2894 355.97C58.9894 354.75 59.9494 353.8 61.1694 353.12C62.3894 352.44 63.7594 352.1 65.2794 352.1C66.7994 352.1 68.1694 352.44 69.3894 353.12C70.6094 353.8 71.5594 354.75 72.2394 355.97C72.9394 357.19 73.2894 358.57 73.2894 360.11C73.2894 361.65 72.9394 363.03 72.2394 364.25C71.5594 365.47 70.6094 366.43 69.3894 367.13C68.1694 367.81 66.7994 368.15 65.2794 368.15ZM65.2794 366.26C66.3994 366.26 67.3994 366.01 68.2794 365.51C69.1794 364.99 69.8794 364.26 70.3794 363.32C70.8794 362.38 71.1294 361.31 71.1294 360.11C71.1294 358.91 70.8794 357.84 70.3794 356.9C69.8794 355.96 69.1794 355.24 68.2794 354.74C67.3994 354.22 66.3994 353.96 65.2794 353.96C64.1594 353.96 63.1494 354.22 62.2494 354.74C61.3694 355.24 60.6694 355.96 60.1494 356.9C59.6494 357.84 59.3994 358.91 59.3994 360.11C59.3994 361.31 59.6494 362.38 60.1494 363.32C60.6694 364.26 61.3694 364.99 62.2494 365.51C63.1494 366.01 64.1594 366.26 65.2794 366.26ZM97.318 352.1C99.298 352.1 100.848 352.67 101.968 353.81C103.108 354.95 103.678 356.63 103.678 358.85V368H101.548V359.06C101.548 357.42 101.148 356.17 100.348 355.31C99.568 354.45 98.458 354.02 97.018 354.02C95.378 354.02 94.088 354.53 93.148 355.55C92.208 356.55 91.738 357.94 91.738 359.72V368H89.608V359.06C89.608 357.42 89.208 356.17 88.408 355.31C87.628 354.45 86.508 354.02 85.048 354.02C83.428 354.02 82.138 354.53 81.178 355.55C80.238 356.55 79.768 357.94 79.768 359.72V368H77.638V352.22H79.678V355.1C80.238 354.14 81.018 353.4 82.018 352.88C83.018 352.36 84.168 352.1 85.468 352.1C86.788 352.1 87.928 352.38 88.888 352.94C89.868 353.5 90.598 354.33 91.078 355.43C91.658 354.39 92.488 353.58 93.568 353C94.668 352.4 95.918 352.1 97.318 352.1ZM109.454 352.22H111.584V368H109.454V352.22ZM110.534 348.77C110.094 348.77 109.724 348.62 109.424 348.32C109.124 348.02 108.974 347.66 108.974 347.24C108.974 346.84 109.124 346.49 109.424 346.19C109.724 345.89 110.094 345.74 110.534 345.74C110.974 345.74 111.344 345.89 111.644 346.19C111.944 346.47 112.094 346.81 112.094 347.21C112.094 347.65 111.944 348.02 111.644 348.32C111.344 348.62 110.974 348.77 110.534 348.77ZM125.551 352.1C127.531 352.1 129.101 352.68 130.261 353.84C131.441 354.98 132.031 356.65 132.031 358.85V368H129.901V359.06C129.901 357.42 129.491 356.17 128.671 355.31C127.851 354.45 126.681 354.02 125.161 354.02C123.461 354.02 122.111 354.53 121.111 355.55C120.131 356.55 119.641 357.94 119.641 359.72V368H117.511V352.22H119.551V355.13C120.131 354.17 120.931 353.43 121.951 352.91C122.991 352.37 124.191 352.1 125.551 352.1ZM152.482 352.22V366.08C152.482 368.76 151.822 370.74 150.502 372.02C149.202 373.32 147.232 373.97 144.592 373.97C143.132 373.97 141.742 373.75 140.422 373.31C139.122 372.89 138.062 372.3 137.242 371.54L138.322 369.92C139.082 370.6 140.002 371.13 141.082 371.51C142.182 371.89 143.332 372.08 144.532 372.08C146.532 372.08 148.002 371.61 148.942 370.67C149.882 369.75 150.352 368.31 150.352 366.35V364.34C149.692 365.34 148.822 366.1 147.742 366.62C146.682 367.14 145.502 367.4 144.202 367.4C142.722 367.4 141.372 367.08 140.152 366.44C138.952 365.78 138.002 364.87 137.302 363.71C136.622 362.53 136.282 361.2 136.282 359.72C136.282 358.24 136.622 356.92 137.302 355.76C138.002 354.6 138.952 353.7 140.152 353.06C141.352 352.42 142.702 352.1 144.202 352.1C145.542 352.1 146.752 352.37 147.832 352.91C148.912 353.45 149.782 354.23 150.442 355.25V352.22H152.482ZM144.412 365.51C145.552 365.51 146.582 365.27 147.502 364.79C148.422 364.29 149.132 363.6 149.632 362.72C150.152 361.84 150.412 360.84 150.412 359.72C150.412 358.6 150.152 357.61 149.632 356.75C149.132 355.87 148.422 355.19 147.502 354.71C146.602 354.21 145.572 353.96 144.412 353.96C143.272 353.96 142.242 354.2 141.322 354.68C140.422 355.16 139.712 355.84 139.192 356.72C138.692 357.6 138.442 358.6 138.442 359.72C138.442 360.84 138.692 361.84 139.192 362.72C139.712 363.6 140.422 364.29 141.322 364.79C142.242 365.27 143.272 365.51 144.412 365.51ZM166.29 352.22H168.42V368H166.29V352.22ZM167.37 348.77C166.93 348.77 166.56 348.62 166.26 348.32C165.96 348.02 165.81 347.66 165.81 347.24C165.81 346.84 165.96 346.49 166.26 346.19C166.56 345.89 166.93 345.74 167.37 345.74C167.81 345.74 168.18 345.89 168.48 346.19C168.78 346.47 168.93 346.81 168.93 347.21C168.93 347.65 168.78 348.02 168.48 348.32C168.18 348.62 167.81 348.77 167.37 348.77ZM182.387 352.1C184.367 352.1 185.937 352.68 187.097 353.84C188.277 354.98 188.867 356.65 188.867 358.85V368H186.737V359.06C186.737 357.42 186.327 356.17 185.507 355.31C184.687 354.45 183.517 354.02 181.997 354.02C180.297 354.02 178.947 354.53 177.947 355.55C176.967 356.55 176.477 357.94 176.477 359.72V368H174.347V352.22H176.387V355.13C176.967 354.17 177.767 353.43 178.787 352.91C179.827 352.37 181.027 352.1 182.387 352.1ZM208.021 352.1C210.081 352.1 211.661 352.62 212.761 353.66C213.861 354.68 214.411 356.2 214.411 358.22V368H212.371V365.54C211.891 366.36 211.181 367 210.241 367.46C209.321 367.92 208.221 368.15 206.941 368.15C205.181 368.15 203.781 367.73 202.741 366.89C201.701 366.05 201.181 364.94 201.181 363.56C201.181 362.22 201.661 361.14 202.621 360.32C203.601 359.5 205.151 359.09 207.271 359.09H212.281V358.13C212.281 356.77 211.901 355.74 211.141 355.04C210.381 354.32 209.271 353.96 207.811 353.96C206.811 353.96 205.851 354.13 204.931 354.47C204.011 354.79 203.221 355.24 202.561 355.82L201.601 354.23C202.401 353.55 203.361 353.03 204.481 352.67C205.601 352.29 206.781 352.1 208.021 352.1ZM207.271 366.47C208.471 366.47 209.501 366.2 210.361 365.66C211.221 365.1 211.861 364.3 212.281 363.26V360.68H207.331C204.631 360.68 203.281 361.62 203.281 363.5C203.281 364.42 203.631 365.15 204.331 365.69C205.031 366.21 206.011 366.47 207.271 366.47ZM247.728 352.1C249.708 352.1 251.258 352.67 252.378 353.81C253.518 354.95 254.088 356.63 254.088 358.85V368H251.958V359.06C251.958 357.42 251.558 356.17 250.758 355.31C249.978 354.45 248.868 354.02 247.428 354.02C245.788 354.02 244.498 354.53 243.558 355.55C242.618 356.55 242.148 357.94 242.148 359.72V368H240.018V359.06C240.018 357.42 239.618 356.17 238.818 355.31C238.038 354.45 236.918 354.02 235.458 354.02C233.838 354.02 232.548 354.53 231.588 355.55C230.648 356.55 230.178 357.94 230.178 359.72V368H228.048V352.22H230.088V355.1C230.648 354.14 231.428 353.4 232.428 352.88C233.428 352.36 234.578 352.1 235.878 352.1C237.198 352.1 238.338 352.38 239.298 352.94C240.278 353.5 241.008 354.33 241.488 355.43C242.068 354.39 242.898 353.58 243.978 353C245.078 352.4 246.328 352.1 247.728 352.1ZM259.865 352.22H261.995V368H259.865V352.22ZM260.945 348.77C260.505 348.77 260.135 348.62 259.835 348.32C259.535 348.02 259.385 347.66 259.385 347.24C259.385 346.84 259.535 346.49 259.835 346.19C260.135 345.89 260.505 345.74 260.945 345.74C261.385 345.74 261.755 345.89 262.055 346.19C262.355 346.47 262.505 346.81 262.505 347.21C262.505 347.65 262.355 348.02 262.055 348.32C261.755 348.62 261.385 348.77 260.945 348.77ZM275.961 352.1C277.941 352.1 279.511 352.68 280.671 353.84C281.851 354.98 282.441 356.65 282.441 358.85V368H280.311V359.06C280.311 357.42 279.901 356.17 279.081 355.31C278.261 354.45 277.091 354.02 275.571 354.02C273.871 354.02 272.521 354.53 271.521 355.55C270.541 356.55 270.051 357.94 270.051 359.72V368H267.921V352.22H269.961V355.13C270.541 354.17 271.341 353.43 272.361 352.91C273.401 352.37 274.601 352.1 275.961 352.1ZM302.444 352.22V368H300.404V365.12C299.844 366.08 299.074 366.83 298.094 367.37C297.114 367.89 295.994 368.15 294.734 368.15C292.674 368.15 291.044 367.58 289.844 366.44C288.664 365.28 288.074 363.59 288.074 361.37V352.22H290.204V361.16C290.204 362.82 290.614 364.08 291.434 364.94C292.254 365.8 293.424 366.23 294.944 366.23C296.604 366.23 297.914 365.73 298.874 364.73C299.834 363.71 300.314 362.3 300.314 360.5V352.22H302.444ZM316.719 367.04C316.319 367.4 315.819 367.68 315.219 367.88C314.639 368.06 314.029 368.15 313.389 368.15C311.909 368.15 310.769 367.75 309.969 366.95C309.169 366.15 308.769 365.02 308.769 363.56V354.02H305.949V352.22H308.769V348.77H310.899V352.22H315.699V354.02H310.899V363.44C310.899 364.38 311.129 365.1 311.589 365.6C312.069 366.08 312.749 366.32 313.629 366.32C314.069 366.32 314.489 366.25 314.889 366.11C315.309 365.97 315.669 365.77 315.969 365.51L316.719 367.04ZM333.78 360.77H320.58C320.7 362.41 321.33 363.74 322.47 364.76C323.61 365.76 325.05 366.26 326.79 366.26C327.77 366.26 328.67 366.09 329.49 365.75C330.31 365.39 331.02 364.87 331.62 364.19L332.82 365.57C332.12 366.41 331.24 367.05 330.18 367.49C329.14 367.93 327.99 368.15 326.73 368.15C325.11 368.15 323.67 367.81 322.41 367.13C321.17 366.43 320.2 365.47 319.5 364.25C318.8 363.03 318.45 361.65 318.45 360.11C318.45 358.57 318.78 357.19 319.44 355.97C320.12 354.75 321.04 353.8 322.2 353.12C323.38 352.44 324.7 352.1 326.16 352.1C327.62 352.1 328.93 352.44 330.09 353.12C331.25 353.8 332.16 354.75 332.82 355.97C333.48 357.17 333.81 358.55 333.81 360.11L333.78 360.77ZM326.16 353.93C324.64 353.93 323.36 354.42 322.32 355.4C321.3 356.36 320.72 357.62 320.58 359.18H331.77C331.63 357.62 331.04 356.36 330 355.4C328.98 354.42 327.7 353.93 326.16 353.93Z" fill="white"/>
<defs>
<filter id="filter0_f" x="24" y="205.522" width="331" height="322.448" filterUnits="userSpaceOnUse" color-interpolation-filters="sRGB">
<feFlood flood-opacity="0" result="BackgroundImageFix"/>
<feBlend mode="normal" in="SourceGraphic" in2="BackgroundImageFix" result="shape"/>
<feGaussianBlur stdDeviation="14" result="effect1_foregroundBlur"/>
</filter>
<filter id="filter1_f" x="35.1504" y="216.222" width="308.868" height="300.72" filterUnits="userSpaceOnUse" color-interpolation-filters="sRGB">
<feFlood flood-opacity="0" result="BackgroundImageFix"/>
<feBlend mode="normal" in="SourceGraphic" in2="BackgroundImageFix" result="shape"/>
<feGaussianBlur stdDeviation="10" result="effect1_foregroundBlur"/>
</filter>
<filter id="filter2_f" x="27.1504" y="208.222" width="324.868" height="316.72" filterUnits="userSpaceOnUse" color-interpolation-filters="sRGB">
<feFlood flood-opacity="0" result="BackgroundImageFix"/>
<feBlend mode="normal" in="SourceGraphic" in2="BackgroundImageFix" result="shape"/>
<feGaussianBlur stdDeviation="14" result="effect1_foregroundBlur"/>
</filter>
<radialGradient id="paint0_radial" cx="0" cy="0" r="1" gradientUnits="userSpaceOnUse" gradientTransform="translate(212.327 340.769) rotate(118.35) scale(193.829 187.955)">
<stop stop-color="white" stop-opacity="0"/>
<stop offset="0.687893" stop-color="white" stop-opacity="0"/>
<stop offset="1" stop-color="white" stop-opacity="0.42"/>
</radialGradient>
<radialGradient id="paint1_radial" cx="0" cy="0" r="1" gradientUnits="userSpaceOnUse" gradientTransform="translate(213.8 338.982) rotate(118.331) scale(207.232 200.862)">
<stop stop-color="white" stop-opacity="0"/>
<stop offset="0.687893" stop-color="white" stop-opacity="0"/>
<stop offset="1" stop-color="white" stop-opacity="0.42"/>
</radialGradient>
<radialGradient id="paint2_radial" cx="0" cy="0" r="1" gradientUnits="userSpaceOnUse" gradientTransform="translate(212.159 340.796) rotate(118.35) scale(193.829 187.955)">
<stop stop-color="white" stop-opacity="0"/>
<stop offset="0.741713" stop-color="white" stop-opacity="0"/>
<stop offset="1" stop-color="white" stop-opacity="0.42"/>
</radialGradient>
<radialGradient id="paint3_radial" cx="0" cy="0" r="1" gradientUnits="userSpaceOnUse" gradientTransform="translate(213.362 339.437) rotate(118.35) scale(202.649 196.508)">
<stop stop-color="white" stop-opacity="0"/>
<stop offset="0.741713" stop-color="white" stop-opacity="0"/>
<stop offset="1" stop-color="white" stop-opacity="0.42"/>
</radialGradient>
</defs>
</svg>
